<svg id="图层_1" data-name="图层 1" xmlns="http://www.w3.org/2000/svg" viewBox="0 0 307.32 26.21"><defs><style>.cls-1,.cls-4{fill:#231815;}.cls-1,.cls-2{fill-rule:evenodd;}.cls-2{fill:#6b1685;}.cls-3{fill:#e6a600;}</style></defs><title>光大银行北京分行新logo-横版-1</title><path class="cls-1" d="M326.66,283.23v-3h-3.1v3H317.1c-2,0-2.22.32-2.22,2.2v12.9h8.68v3.83h3.1v-3.83h8.81v-12.9c0-1.88-.17-2.2-2.18-2.2ZM318.78,286h4.78v9.59h-5.65v-8.66c0-.75.1-.93.87-.93Zm7.88,0h5c.71,0,.79.13.79.93v8.66h-5.78V286Z" transform="translate(-233.39 -275.95)"/><path class="cls-1" d="M350.15,287.29v2.3h4.13v2.67h-4.13v2.85h1.65c.24,0,.31-.06.31-.31v-1.46h2.72v3.22c0,1-.18,1.27-1.41,1.27h-11v-2.72h4.7v-2.85h-4.17v-2.67h4.17v-2.3h-4.7v-2.74h12.46v2.74Zm-8-4.06c-.94,0-1,.07-1,1.21v14.69h14.9v-14.8c0-.95,0-1.1-1-1.1Zm-3.85,18.65v-18.8c0-2.32.14-2.56,2.37-2.56h15.9c2.12,0,2.36.27,2.36,2.45l0,18.91Z" transform="translate(-233.39 -275.95)"/><path class="cls-1" d="M373.67,288.77h8.86v3h-5.91v6.55c0,.6.24.72.78.72h5.09v2.84H375.9c-2,0-2.54-.43-2.54-2.55v-7.56h-2.59c0,5.6-3.47,9.29-8.82,10.35l-.18,0v-3.22l.12,0a7.19,7.19,0,0,0,5.55-7.13h-5.73v-3h8.86v-8.53h3.1v8.53Z" transform="translate(-233.39 -275.95)"/><path class="cls-1" d="M393.29,286.06v-5.82h3.44v5.82h8.64v3.06h-8.48a10.94,10.94,0,0,0,8.38,9.84l.1,0v3.17l-.17,0c-4.55-1-8.22-3.37-10.21-7.6-1.95,4.23-5.54,6.59-10.17,7.61l-.18,0V299l.12,0a10.88,10.88,0,0,0,8.37-9.84h-8.49v-3.06Z" transform="translate(-233.39 -275.95)"/><path class="cls-1" d="M449.67,298.19V290h-7.88v-2.9h13.34V290H452.7v9.54c0,1.9-.66,2.35-2.41,2.35h-5.68v-2.82h4.19c.69,0,.87-.09.87-.88Z" transform="translate(-233.39 -275.95)"/><polygon class="cls-1" points="221.3 4.57 221.3 7.45 209.03 7.45 209.03 4.57 221.3 4.57 221.3 4.57"/><polygon class="cls-1" points="205.56 11.91 205.56 12.82 205.56 25.94 202.58 25.94 202.58 16.31 202.58 14.6 205.56 11.91 205.56 11.91"/><path class="cls-1" d="M421.25,287.52c0,3.71,0,7.74,0,11.44a8.8,8.8,0,0,0,2.84-1.08v3a14.18,14.18,0,0,1-5.74,1V280.52h9.33c1.67,0,2.17.38,2.17,2.15v9.4h-4.91a7.84,7.84,0,0,0,1.43,3.56,9.43,9.43,0,0,0,1.44-2.89h2.77a12.31,12.31,0,0,1-2.36,4.86,6.31,6.31,0,0,0,2.8,1.48v3.09c-6.17-1.74-9.3-6.38-9.35-12.7H427v-1.94Zm0-4.44V285H427v-1.24c0-.55-.08-.7-.66-.7Z" transform="translate(-233.39 -275.95)"/><path class="cls-1" d="M417.33,287.13v2.57h-3.4v2.41h3.4v2.56h-3.4v3.7c0,.76.15.82.88.82h2.52v2.7h-4.18c-1.54,0-2.16-.47-2.16-2.09v-5.13h-2.65v-2.56H411V289.7h-1.86v-2.57ZM410.84,283h6.49v2.56h-6.49V283Z" transform="translate(-233.39 -275.95)"/><path class="cls-1" d="M441.7,285.39a19.49,19.49,0,0,1-8.64,7.95l0-3.15a17.46,17.46,0,0,0,5.31-4.8Z" transform="translate(-233.39 -275.95)"/><path class="cls-1" d="M441.18,280.24a21.75,21.75,0,0,1-8.12,7.41V284.5a17.84,17.84,0,0,0,4.68-4.26Z" transform="translate(-233.39 -275.95)"/><path class="cls-1" d="M414.22,280.24c-1.11,3.36-3.24,6.69-6.57,8.38V285.5a11.73,11.73,0,0,0,3.53-5.26Z" transform="translate(-233.39 -275.95)"/><path class="cls-1" d="M362.43,281.08h3.09A29.25,29.25,0,0,0,369,288h-3.46a33.4,33.4,0,0,1-3.13-6.95Z" transform="translate(-233.39 -275.95)"/><path class="cls-1" d="M381.81,281.08h-3.08a29.66,29.66,0,0,1-3.51,6.95h3.46a33.4,33.4,0,0,0,3.13-6.95Z" transform="translate(-233.39 -275.95)"/><path class="cls-2" d="M263.34,298.67v-4.24c-2.4-.62-6.29-.38-6.06,2.3.3,3.51,4.32,2,6.06,1.94Zm0-7.22a10.12,10.12,0,0,0,0-2.05c-.41-2.39-5.65-1.16-8,.55v-4a15,15,0,0,1,6.68-1.27c3.26.11,5.19,1.12,5.19,4.72v12.07c-2.94-.13-7,1.25-9.49.43a5.3,5.3,0,0,1-3.75-5.3c.1-5.2,5.47-6.12,9.41-5.15Z" transform="translate(-233.39 -275.95)"/><path class="cls-2" d="M272.53,288.58v13.28h-3.76V285.35c3.26,0,7.18-1.34,10.27-.14,2.64,1,2.58,3.41,2.58,8.5v8.15h-3.84V291.54c0-3.77-.49-3.56-5.25-3Z" transform="translate(-233.39 -275.95)"/><polygon class="cls-2" points="56.85 16.39 63.78 25.91 59.3 25.91 53.8 18.68 53.8 25.91 49.9 25.91 49.9 3.63 53.8 3.63 53.8 14.34 59.13 8.9 63.71 8.9 56.85 16.39 56.85 16.39"/><path class="cls-3" d="M246.18,276H233.39v25.91h12.79a6.74,6.74,0,0,0,3.13-.77h-2.56v-.79h3.78a6.54,6.54,0,0,0,.8-.78h-4.58v-.79h5.19a7.52,7.52,0,0,0,.45-.78h-15v-.79h15.36a7.59,7.59,0,0,0,.22-.78H237.36v-.79h15.7a5.63,5.63,0,0,0,0-.71v-.08H237.36V294h15.69a7.32,7.32,0,0,0-.15-.79H237.36v-.79h15.3a7.91,7.91,0,0,0-.35-.79H237.36v-.79h14.48a8.17,8.17,0,0,0-.64-.79h-5.6v-.79h4.72a6.71,6.71,0,0,0-1.31-.79H245.6v-.78h1.83a5.78,5.78,0,0,0,1.88-.79h-12v-.78h13a7.08,7.08,0,0,0,.66-.79H237.35v-.78h14.09a5.94,5.94,0,0,0,.32-.79H237.35V283H252a6.82,6.82,0,0,0,.1-.79H237.35v-.78h14.7a6.83,6.83,0,0,0-.11-.79H237.35v-.78H251.7a4.59,4.59,0,0,0-.34-.79h-4.61v-.79h4.1a5.82,5.82,0,0,0-.71-.78h-3.39v-.78h2.16a4.87,4.87,0,0,0-2.73-.79Z" transform="translate(-233.39 -275.95)"/><path class="cls-4" d="M472.85,299.07c1.36-.48,3-1.09,4.86-1.86v-4.95h-4.53v-1.17h4.53v-4.41H479v15.11h-1.27v-3.27l-4.36,1.79Zm9.26-12.42h1.27V292a33.57,33.57,0,0,0,4-2.42l.79,1.14c-1.14.71-2.73,1.58-4.8,2.61v5.78c0,.71.4,1.07,1.18,1.07h1.1a1.14,1.14,0,0,0,1.28-1.07c.09-.66.17-1.52.25-2.58.46.19.9.36,1.33.51-.1,1-.22,1.84-.34,2.54a2,2,0,0,1-2.22,1.8h-1.7a1.89,1.89,0,0,1-2.15-2.13Z" transform="translate(-233.39 -275.95)"/><path class="cls-4" d="M494.45,297.15l.86.94q-2.1,1.59-4.23,2.91a7,7,0,0,0-.72-1.05A31.79,31.79,0,0,0,494.45,297.15Zm-4-8.51h7.26q-.45-.83-1-1.71l1.15-.57c.42.63.82,1.28,1.22,1.95l-.63.33h7.4v1.1H490.41Zm2,2.5h11.24v5.32h-1.22v-.63h-3.62v4c0,1.24-.59,1.87-1.78,1.89H495c-.08-.45-.16-.88-.24-1.28.7.07,1.31.1,1.82.1s1-.32,1-1v-3.68h-3.91v.7h-1.23Zm10,1.09h-8.79v2.51h8.79Zm-1.92,6,.74-.94q2.15,1.28,4.13,2.58l-.83,1.08C503.48,300.09,502.13,299.19,500.55,298.2Z" transform="translate(-233.39 -275.95)"/><path class="cls-4" d="M507.54,292.89a19.49,19.49,0,0,0,5.54-6.26l1.12.61a22,22,0,0,1-5.74,6.72A6.87,6.87,0,0,0,507.54,292.89Zm2.14.52h10.46q-.07,2.67-.24,5.22c-.12,2-1,2.93-2.78,2.92-.85,0-1.74,0-2.69-.08-.06-.44-.14-.88-.22-1.34a19.93,19.93,0,0,0,2.7.19c1.05,0,1.63-.59,1.73-1.84s.15-2.43.19-3.91H514a10.21,10.21,0,0,1-1.09,4.23,7.78,7.78,0,0,1-4,3.25q-.42-.53-.9-1.05a7.17,7.17,0,0,0,3.76-2.83,8.06,8.06,0,0,0,1-3.6h-3Zm6.51-6.54,1.13-.49a11.85,11.85,0,0,0,6.07,6.3,10.79,10.79,0,0,0-1,1.2A14.19,14.19,0,0,1,516.19,286.87Z" transform="translate(-233.39 -275.95)"/><path class="cls-4" d="M525.06,295.87a19.07,19.07,0,0,0,4.43-5.61l1.1.68a29.58,29.58,0,0,1-1.71,2.62v8.32h-1.31v-6.71a20.38,20.38,0,0,1-2,2C525.44,296.71,525.26,296.28,525.06,295.87Zm.08-5a16.17,16.17,0,0,0,4-4.5l1.13.7a22,22,0,0,1-4.52,5C525.58,291.7,525.37,291.3,525.14,290.89Zm5.61,1.46h10v1.18h-3.05v6.15a1.73,1.73,0,0,1-2,1.95l-2.69,0q-.09-.63-.24-1.41c.82.08,1.64.12,2.47.12a1,1,0,0,0,1.08-1.07v-5.72h-5.56Zm.91-4.75h8.16v1.18h-8.16Z" transform="translate(-233.39 -275.95)"/></svg>